# xmcd CD database file
#
# Track frame offsets:
#	150
#	17704
#	30067
#	53063
#	66867
#	79831
#	100061
#	134424
#	159221
#	175798
#	192626
#	202782
#	220038
#
# Disc length: 3468 seconds
#
# Revision: 0
# Processed by: cddbd v1.5.2PL0 Copyright (c) Steve Scherf et al.
# Submitted via: CDex 1.51
#
DISCID=9f0d8a0d
DTITLE=Old House - The Real Rockman
DYEAR=2001
DGENRE=Blues
TTITLE0=Castigation
TTITLE1=The Real Rockman
TTITLE2=Plague In Town
TTITLE3=The Rock Salad
TTITLE4=Feeling The Past
TTITLE5=Mama Hears My Blues
TTITLE6=When You Feel Sad
TTITLE7=Everything Changes
TTITLE8=All Your Love
TTITLE9=Be Bop A Lu La
TTITLE10=Lucile
TTITLE11=Walking With God
TTITLE12=Unknown
EXTD=YEAR: 2001
EXTT0=
EXTT1=
EXTT2=
EXTT3=
EXTT4=
EXTT5=
EXTT6=
EXTT7=
EXTT8=
EXTT9=
EXTT10=
EXTT11=
EXTT12=
PLAYORDER=
